<svg width="253" height="71" viewBox="0 0 253 71" fill="none" xmlns="http://www.w3.org/2000/svg">
<rect width="253" height="71" fill="white"/>
<circle cx="25.5" cy="25.5" r="25.5" fill="#3D99B3"/>
<ellipse cx="25.5" cy="47.7545" rx="21.7909" ry="22.2545" fill="#4EC5E6"/>
<path fill-rule="evenodd" clip-rule="evenodd" d="M5.09998 40.5159C8.04122 31.7786 16.1588 25.5 25.7122 25.5C35.2657 25.5 43.3832 31.7786 46.3244 40.5159C41.6869 46.8709 34.1818 51 25.7122 51C17.2426 51 9.73749 46.8709 5.09998 40.5159Z" fill="#235766"/>
<path d="M80.272 37.112H73.84C73.728 37.432 73.608 37.784 73.48 38.168C73.352 38.536 73.224 38.904 73.096 39.272C72.984 39.624 72.872 39.96 72.76 40.28C72.648 40.584 72.56 40.84 72.496 41.048C72.272 41.144 72.008 41.192 71.704 41.192C71.448 41.192 71.216 41.128 71.008 41C70.816 40.856 70.72 40.632 70.72 40.328C70.72 40.184 70.744 40.04 70.792 39.896C70.84 39.736 70.896 39.568 70.96 39.392C71.2 38.72 71.504 37.856 71.872 36.8C72.256 35.744 72.664 34.624 73.096 33.44C73.544 32.24 73.992 31.04 74.44 29.84C74.904 28.624 75.328 27.536 75.712 26.576C75.84 26.512 76.032 26.448 76.288 26.384C76.544 26.32 76.808 26.288 77.08 26.288C77.4 26.288 77.704 26.336 77.992 26.432C78.296 26.528 78.488 26.688 78.568 26.912C78.952 27.84 79.36 28.904 79.792 30.104C80.24 31.288 80.688 32.504 81.136 33.752C81.584 35 82.008 36.232 82.408 37.448C82.824 38.648 83.192 39.736 83.512 40.712C83.384 40.856 83.232 40.968 83.056 41.048C82.88 41.144 82.68 41.192 82.456 41.192C82.152 41.192 81.92 41.128 81.76 41C81.6 40.856 81.464 40.624 81.352 40.304L80.272 37.112ZM77.056 27.92C76.88 28.4 76.68 28.952 76.456 29.576C76.232 30.184 76 30.824 75.76 31.496C75.52 32.168 75.28 32.848 75.04 33.536C74.8 34.224 74.576 34.88 74.368 35.504H79.768C79.528 34.784 79.28 34.064 79.024 33.344C78.768 32.608 78.52 31.904 78.28 31.232C78.056 30.56 77.84 29.944 77.632 29.384C77.44 28.808 77.28 28.32 77.152 27.92H77.056ZM90.7311 41.312C90.1711 41.312 89.6431 41.248 89.1471 41.12C88.6511 40.992 88.2431 40.84 87.9231 40.664V45.32C87.8431 45.352 87.7231 45.384 87.5631 45.416C87.4031 45.464 87.2271 45.488 87.0351 45.488C86.3471 45.488 86.0031 45.192 86.0031 44.6V31.928C86.0031 31.608 86.0591 31.352 86.1711 31.16C86.2831 30.968 86.5151 30.768 86.8671 30.56C87.2991 30.32 87.8111 30.104 88.4031 29.912C89.0111 29.704 89.6991 29.6 90.4671 29.6C91.2511 29.6 91.9871 29.712 92.6751 29.936C93.3791 30.16 93.9791 30.512 94.4751 30.992C94.9871 31.456 95.3871 32.056 95.6751 32.792C95.9791 33.528 96.1311 34.408 96.1311 35.432C96.1311 36.424 95.9951 37.288 95.7231 38.024C95.4671 38.76 95.0991 39.376 94.6191 39.872C94.1391 40.352 93.5631 40.712 92.8911 40.952C92.2351 41.192 91.5151 41.312 90.7311 41.312ZM90.4671 39.728C91.5871 39.728 92.4831 39.392 93.1551 38.72C93.8431 38.032 94.1871 36.936 94.1871 35.432C94.1871 34.648 94.0831 33.984 93.8751 33.44C93.6831 32.896 93.4111 32.456 93.0591 32.12C92.7231 31.784 92.3311 31.544 91.8831 31.4C91.4351 31.256 90.9631 31.184 90.4671 31.184C89.8911 31.184 89.4031 31.256 89.0031 31.4C88.6031 31.544 88.2431 31.704 87.9231 31.88V38.96C88.2271 39.184 88.5871 39.368 89.0031 39.512C89.4191 39.656 89.9071 39.728 90.4671 39.728ZM103.833 41.312C103.273 41.312 102.745 41.248 102.249 41.12C101.753 40.992 101.345 40.84 101.025 40.664V45.32C100.945 45.352 100.825 45.384 100.665 45.416C100.505 45.464 100.329 45.488 100.137 45.488C99.4487 45.488 99.1047 45.192 99.1047 44.6V31.928C99.1047 31.608 99.1607 31.352 99.2727 31.16C99.3847 30.968 99.6167 30.768 99.9687 30.56C100.401 30.32 100.913 30.104 101.505 29.912C102.113 29.704 102.801 29.6 103.569 29.6C104.353 29.6 105.089 29.712 105.777 29.936C106.481 30.16 107.081 30.512 107.577 30.992C108.089 31.456 108.489 32.056 108.777 32.792C109.081 33.528 109.233 34.408 109.233 35.432C109.233 36.424 109.097 37.288 108.825 38.024C108.569 38.76 108.201 39.376 107.721 39.872C107.241 40.352 106.665 40.712 105.993 40.952C105.337 41.192 104.617 41.312 103.833 41.312ZM103.569 39.728C104.689 39.728 105.585 39.392 106.257 38.72C106.945 38.032 107.289 36.936 107.289 35.432C107.289 34.648 107.185 33.984 106.977 33.44C106.785 32.896 106.513 32.456 106.161 32.12C105.825 31.784 105.433 31.544 104.985 31.4C104.537 31.256 104.065 31.184 103.569 31.184C102.993 31.184 102.505 31.256 102.105 31.4C101.705 31.544 101.345 31.704 101.025 31.88V38.96C101.329 39.184 101.689 39.368 102.105 39.512C102.521 39.656 103.009 39.728 103.569 39.728ZM122.502 35.456C122.502 36.352 122.374 37.16 122.118 37.88C121.862 38.6 121.494 39.216 121.014 39.728C120.55 40.24 119.982 40.632 119.31 40.904C118.638 41.176 117.886 41.312 117.054 41.312C116.222 41.312 115.47 41.176 114.798 40.904C114.126 40.632 113.55 40.24 113.07 39.728C112.59 39.216 112.222 38.6 111.966 37.88C111.71 37.16 111.582 36.352 111.582 35.456C111.582 34.56 111.71 33.752 111.966 33.032C112.238 32.312 112.614 31.696 113.094 31.184C113.574 30.672 114.15 30.28 114.822 30.008C115.494 29.736 116.238 29.6 117.054 29.6C117.87 29.6 118.614 29.736 119.286 30.008C119.958 30.28 120.526 30.672 120.99 31.184C121.47 31.696 121.838 32.312 122.094 33.032C122.366 33.752 122.502 34.56 122.502 35.456ZM117.054 31.184C115.966 31.184 115.11 31.56 114.486 32.312C113.862 33.064 113.55 34.112 113.55 35.456C113.55 36.816 113.854 37.872 114.462 38.624C115.086 39.36 115.95 39.728 117.054 39.728C118.158 39.728 119.014 39.352 119.622 38.6C120.23 37.848 120.534 36.8 120.534 35.456C120.534 34.112 120.222 33.064 119.598 32.312C118.99 31.56 118.142 31.184 117.054 31.184ZM127.512 40.952C127.432 40.984 127.312 41.016 127.152 41.048C126.992 41.096 126.816 41.12 126.624 41.12C125.936 41.12 125.592 40.832 125.592 40.256V29.96C125.672 29.928 125.792 29.896 125.952 29.864C126.128 29.816 126.312 29.792 126.504 29.792C127.176 29.792 127.512 30.088 127.512 30.68V40.952ZM125.304 26.408C125.304 26.072 125.416 25.792 125.64 25.568C125.88 25.328 126.184 25.208 126.552 25.208C126.92 25.208 127.216 25.328 127.44 25.568C127.664 25.792 127.776 26.072 127.776 26.408C127.776 26.744 127.664 27.032 127.44 27.272C127.216 27.496 126.92 27.608 126.552 27.608C126.184 27.608 125.88 27.496 125.64 27.272C125.416 27.032 125.304 26.744 125.304 26.408ZM138.941 33.776C138.941 32.88 138.685 32.224 138.173 31.808C137.677 31.392 137.005 31.184 136.157 31.184C135.517 31.184 134.949 31.264 134.453 31.424C133.957 31.584 133.533 31.768 133.181 31.976V40.952C133.101 40.984 132.981 41.016 132.821 41.048C132.661 41.096 132.485 41.12 132.293 41.12C131.605 41.12 131.261 40.832 131.261 40.256V32.072C131.261 31.736 131.325 31.464 131.453 31.256C131.597 31.032 131.837 30.816 132.173 30.608C132.589 30.352 133.141 30.12 133.829 29.912C134.517 29.704 135.293 29.6 136.157 29.6C137.613 29.6 138.757 29.928 139.589 30.584C140.437 31.24 140.861 32.272 140.861 33.68V40.952C140.781 40.984 140.653 41.016 140.477 41.048C140.317 41.096 140.149 41.12 139.973 41.12C139.285 41.12 138.941 40.832 138.941 40.256V33.776ZM148.248 41.312C147.128 41.312 146.216 41.064 145.512 40.568C144.824 40.072 144.48 39.248 144.48 38.096V26.696C144.56 26.664 144.68 26.632 144.84 26.6C145.016 26.552 145.2 26.528 145.392 26.528C146.064 26.528 146.4 26.816 146.4 27.392V30.152H150.336C150.384 30.232 150.432 30.344 150.48 30.488C150.528 30.616 150.552 30.76 150.552 30.92C150.552 31.464 150.312 31.736 149.832 31.736H146.4V37.976C146.4 38.616 146.576 39.072 146.928 39.344C147.296 39.6 147.808 39.728 148.464 39.728C148.736 39.728 149.04 39.68 149.376 39.584C149.712 39.488 149.992 39.376 150.216 39.248C150.312 39.344 150.4 39.464 150.48 39.608C150.56 39.752 150.6 39.92 150.6 40.112C150.6 40.464 150.392 40.752 149.976 40.976C149.56 41.2 148.984 41.312 148.248 41.312ZM167.45 33.464C167.45 32.68 167.226 32.104 166.778 31.736C166.33 31.368 165.73 31.184 164.978 31.184C163.938 31.184 163.01 31.552 162.194 32.288C162.29 32.608 162.338 32.952 162.338 33.32V40.952C162.258 40.984 162.13 41.016 161.954 41.048C161.794 41.096 161.626 41.12 161.45 41.12C160.762 41.12 160.418 40.832 160.418 40.256V33.464C160.418 32.68 160.194 32.104 159.746 31.736C159.298 31.368 158.69 31.184 157.922 31.184C157.41 31.184 156.922 31.264 156.458 31.424C156.01 31.584 155.626 31.768 155.306 31.976V40.952C155.226 40.984 155.106 41.016 154.946 41.048C154.786 41.096 154.61 41.12 154.418 41.12C153.73 41.12 153.386 40.832 153.386 40.256V32.072C153.386 31.752 153.45 31.488 153.578 31.28C153.722 31.056 153.962 30.832 154.298 30.608C154.73 30.336 155.274 30.104 155.93 29.912C156.602 29.704 157.274 29.6 157.946 29.6C158.73 29.6 159.426 29.72 160.034 29.96C160.642 30.184 161.106 30.496 161.426 30.896C161.842 30.528 162.362 30.224 162.986 29.984C163.61 29.728 164.322 29.6 165.122 29.6C166.418 29.6 167.45 29.912 168.218 30.536C168.986 31.144 169.37 32.088 169.37 33.368V40.952C169.29 40.984 169.162 41.016 168.986 41.048C168.826 41.096 168.658 41.12 168.482 41.12C167.794 41.12 167.45 40.832 167.45 40.256V33.464ZM174.348 36.584C174.78 38.68 176.156 39.728 178.476 39.728C179.148 39.728 179.756 39.616 180.3 39.392C180.844 39.168 181.276 38.928 181.596 38.672C181.98 38.896 182.172 39.2 182.172 39.584C182.172 39.808 182.068 40.024 181.86 40.232C181.668 40.44 181.396 40.624 181.044 40.784C180.708 40.944 180.308 41.072 179.844 41.168C179.396 41.264 178.908 41.312 178.38 41.312C176.524 41.312 175.052 40.808 173.964 39.8C172.892 38.792 172.356 37.32 172.356 35.384C172.356 34.472 172.484 33.664 172.74 32.96C173.012 32.24 173.38 31.632 173.844 31.136C174.324 30.64 174.892 30.264 175.548 30.008C176.204 29.736 176.916 29.6 177.684 29.6C178.404 29.6 179.068 29.72 179.676 29.96C180.284 30.2 180.804 30.544 181.236 30.992C181.684 31.424 182.028 31.944 182.268 32.552C182.524 33.144 182.652 33.8 182.652 34.52C182.652 34.872 182.572 35.128 182.412 35.288C182.252 35.432 182.028 35.52 181.74 35.552L174.348 36.584ZM177.66 31.16C176.684 31.16 175.876 31.504 175.236 32.192C174.596 32.864 174.26 33.832 174.228 35.096L180.828 34.184C180.748 33.304 180.436 32.584 179.892 32.024C179.364 31.448 178.62 31.16 177.66 31.16ZM193.105 33.776C193.105 32.88 192.849 32.224 192.337 31.808C191.841 31.392 191.169 31.184 190.321 31.184C189.681 31.184 189.113 31.264 188.617 31.424C188.121 31.584 187.697 31.768 187.345 31.976V40.952C187.265 40.984 187.145 41.016 186.985 41.048C186.825 41.096 186.649 41.12 186.457 41.12C185.769 41.12 185.425 40.832 185.425 40.256V32.072C185.425 31.736 185.489 31.464 185.617 31.256C185.761 31.032 186.001 30.816 186.337 30.608C186.753 30.352 187.305 30.12 187.993 29.912C188.681 29.704 189.457 29.6 190.321 29.6C191.777 29.6 192.921 29.928 193.753 30.584C194.601 31.24 195.025 32.272 195.025 33.68V40.952C194.945 40.984 194.817 41.016 194.641 41.048C194.481 41.096 194.313 41.12 194.137 41.12C193.449 41.12 193.105 40.832 193.105 40.256V33.776ZM202.412 41.312C201.292 41.312 200.38 41.064 199.676 40.568C198.988 40.072 198.644 39.248 198.644 38.096V26.696C198.724 26.664 198.844 26.632 199.004 26.6C199.18 26.552 199.364 26.528 199.556 26.528C200.228 26.528 200.564 26.816 200.564 27.392V30.152H204.5C204.548 30.232 204.596 30.344 204.644 30.488C204.692 30.616 204.716 30.76 204.716 30.92C204.716 31.464 204.476 31.736 203.996 31.736H200.564V37.976C200.564 38.616 200.74 39.072 201.092 39.344C201.46 39.6 201.972 39.728 202.628 39.728C202.9 39.728 203.204 39.68 203.54 39.584C203.876 39.488 204.156 39.376 204.38 39.248C204.476 39.344 204.564 39.464 204.644 39.608C204.724 39.752 204.764 39.92 204.764 40.112C204.764 40.464 204.556 40.752 204.14 40.976C203.724 41.2 203.148 41.312 202.412 41.312ZM208.942 41.12C208.238 41.12 207.886 40.832 207.886 40.256V26.696C208.174 26.408 208.606 26.264 209.182 26.264C209.566 26.264 209.894 26.344 210.166 26.504C210.438 26.648 210.686 26.92 210.91 27.32L215.494 35C215.686 35.336 215.886 35.696 216.094 36.08C216.302 36.448 216.502 36.824 216.694 37.208C216.886 37.576 217.062 37.928 217.222 38.264C217.398 38.584 217.542 38.856 217.654 39.08L217.75 39.056C217.622 37.76 217.542 36.456 217.51 35.144C217.494 33.832 217.486 32.552 217.486 31.304V26.456C217.582 26.424 217.71 26.392 217.87 26.36C218.03 26.312 218.206 26.288 218.398 26.288C219.102 26.288 219.454 26.576 219.454 27.152V40.736C219.31 40.864 219.126 40.96 218.902 41.024C218.678 41.104 218.43 41.144 218.158 41.144C217.774 41.144 217.446 41.072 217.174 40.928C216.902 40.768 216.654 40.488 216.43 40.088L211.87 32.408C211.678 32.088 211.47 31.736 211.246 31.352C211.038 30.968 210.83 30.592 210.622 30.224C210.43 29.856 210.246 29.504 210.07 29.168C209.91 28.832 209.774 28.552 209.662 28.328L209.566 28.352C209.646 29.12 209.71 30 209.758 30.992C209.806 31.968 209.83 32.896 209.83 33.776V40.952C209.75 40.984 209.622 41.016 209.446 41.048C209.286 41.096 209.118 41.12 208.942 41.12ZM233.69 35.456C233.69 36.352 233.562 37.16 233.306 37.88C233.05 38.6 232.682 39.216 232.202 39.728C231.738 40.24 231.17 40.632 230.498 40.904C229.826 41.176 229.074 41.312 228.242 41.312C227.41 41.312 226.658 41.176 225.986 40.904C225.314 40.632 224.738 40.24 224.258 39.728C223.778 39.216 223.41 38.6 223.154 37.88C222.898 37.16 222.77 36.352 222.77 35.456C222.77 34.56 222.898 33.752 223.154 33.032C223.426 32.312 223.802 31.696 224.282 31.184C224.762 30.672 225.338 30.28 226.01 30.008C226.682 29.736 227.426 29.6 228.242 29.6C229.058 29.6 229.802 29.736 230.474 30.008C231.146 30.28 231.714 30.672 232.178 31.184C232.658 31.696 233.026 32.312 233.282 33.032C233.554 33.752 233.69 34.56 233.69 35.456ZM228.242 31.184C227.154 31.184 226.298 31.56 225.674 32.312C225.05 33.064 224.738 34.112 224.738 35.456C224.738 36.816 225.042 37.872 225.65 38.624C226.274 39.36 227.138 39.728 228.242 39.728C229.346 39.728 230.202 39.352 230.81 38.6C231.418 37.848 231.722 36.8 231.722 35.456C231.722 34.112 231.41 33.064 230.786 32.312C230.178 31.56 229.33 31.184 228.242 31.184ZM243.503 32.744C243.279 33.496 243.047 34.256 242.807 35.024C242.583 35.792 242.351 36.528 242.111 37.232C241.871 37.936 241.639 38.6 241.415 39.224C241.191 39.848 240.983 40.4 240.791 40.88C240.663 40.96 240.519 41.024 240.359 41.072C240.199 41.12 239.983 41.144 239.711 41.144C239.455 41.144 239.215 41.096 238.991 41C238.783 40.92 238.639 40.784 238.559 40.592C238.367 40.192 238.135 39.568 237.863 38.72C237.607 37.872 237.335 36.944 237.047 35.936C236.775 34.912 236.511 33.888 236.255 32.864C236.015 31.824 235.815 30.92 235.655 30.152C235.767 30.04 235.903 29.936 236.063 29.84C236.239 29.744 236.447 29.696 236.687 29.696C236.991 29.696 237.215 29.784 237.359 29.96C237.503 30.12 237.615 30.384 237.695 30.752C237.839 31.424 238.007 32.192 238.199 33.056C238.391 33.904 238.583 34.736 238.775 35.552C238.967 36.368 239.143 37.112 239.303 37.784C239.479 38.456 239.607 38.952 239.687 39.272H239.783C239.879 38.984 240.015 38.552 240.191 37.976C240.383 37.4 240.599 36.744 240.839 36.008C241.079 35.256 241.343 34.448 241.631 33.584C241.919 32.72 242.207 31.856 242.495 30.992C242.783 30.832 243.127 30.752 243.527 30.752C244.119 30.752 244.487 30.96 244.631 31.376C244.919 32.208 245.191 33.04 245.447 33.872C245.719 34.688 245.967 35.448 246.191 36.152C246.415 36.856 246.607 37.488 246.767 38.048C246.927 38.592 247.055 39.008 247.151 39.296H247.271C247.639 37.856 248.039 36.328 248.471 34.712C248.903 33.096 249.255 31.496 249.527 29.912C249.751 29.768 250.023 29.696 250.343 29.696C250.615 29.696 250.831 29.76 250.991 29.888C251.151 30.016 251.231 30.216 251.231 30.488C251.231 30.664 251.175 31.008 251.063 31.52C250.967 32.016 250.831 32.6 250.655 33.272C250.479 33.928 250.279 34.64 250.055 35.408C249.847 36.16 249.631 36.896 249.407 37.616C249.183 38.32 248.967 38.968 248.759 39.56C248.567 40.136 248.399 40.576 248.255 40.88C248.175 40.944 248.039 41 247.847 41.048C247.671 41.112 247.463 41.144 247.223 41.144C246.919 41.144 246.663 41.104 246.455 41.024C246.263 40.96 246.135 40.848 246.071 40.688C245.895 40.256 245.703 39.744 245.495 39.152C245.303 38.56 245.095 37.92 244.871 37.232C244.647 36.528 244.415 35.792 244.175 35.024C243.951 34.256 243.727 33.496 243.503 32.744Z" fill="black"/>
</svg>
