<svg width="361" height="28" viewBox="0 0 361 28" fill="none" xmlns="http://www.w3.org/2000/svg">
<path d="M0 14H148.5M213.5 14H361" stroke="black"/>
<path d="M179.105 14.0195C179.105 15.6914 178.824 17.1523 178.262 18.4023C177.699 19.6445 176.902 20.5938 175.871 21.25C174.84 21.9062 173.637 22.2344 172.262 22.2344C170.918 22.2344 169.727 21.9062 168.688 21.25C167.648 20.5859 166.84 19.6445 166.262 18.4258C165.691 17.1992 165.398 15.7812 165.383 14.1719V12.9414C165.383 11.3008 165.668 9.85156 166.238 8.59375C166.809 7.33594 167.613 6.375 168.652 5.71094C169.699 5.03906 170.895 4.70312 172.238 4.70312C173.605 4.70312 174.809 5.03516 175.848 5.69922C176.895 6.35547 177.699 7.3125 178.262 8.57031C178.824 9.82031 179.105 11.2773 179.105 12.9414V14.0195ZM176.867 12.918C176.867 10.8945 176.461 9.34375 175.648 8.26562C174.836 7.17969 173.699 6.63672 172.238 6.63672C170.816 6.63672 169.695 7.17969 168.875 8.26562C168.062 9.34375 167.645 10.8438 167.621 12.7656V14.0195C167.621 15.9805 168.031 17.5234 168.852 18.6484C169.68 19.7656 170.816 20.3242 172.262 20.3242C173.715 20.3242 174.84 19.7969 175.637 18.7422C176.434 17.6797 176.844 16.1602 176.867 14.1836V12.918ZM188.738 15.0977H184.73V22H182.469V4.9375H188.117C190.039 4.9375 191.516 5.375 192.547 6.25C193.586 7.125 194.105 8.39844 194.105 10.0703C194.105 11.1328 193.816 12.0586 193.238 12.8477C192.668 13.6367 191.871 14.2266 190.848 14.6172L194.855 21.8594V22H192.441L188.738 15.0977ZM184.73 13.2578H188.188C189.305 13.2578 190.191 12.9688 190.848 12.3906C191.512 11.8125 191.844 11.0391 191.844 10.0703C191.844 9.01562 191.527 8.20703 190.895 7.64453C190.27 7.08203 189.363 6.79688 188.176 6.78906H184.73V13.2578Z" fill="black"/>
</svg>
